{"title":"Kung Fu Panda 2 (2011) DVDRip NL gesproken DutchReleaseTeam","uid":6766009,"size":740971959,"categoryP":"video","categoryS":"movies","magnet":"?xt=urn:btih:9cd713ac9caa4e083bf0158c43272e031d667422&amp;dn=Kung+Fu+Panda+2+%282011%29+DVDRip+NL+gesproken+DutchReleaseTeam&amp;tr=udp%3A%2F%2Ftracker.openbittorrent.com%3A80&amp;tr=udp%3A%2F%2Fopen.demonii.com%3A1337&amp;tr=udp%3A%2F%2Ftracker.coppersurfer.tk%3A6969&amp;tr=udp%3A%2F%2Fexodus.desync.com%3A6969","seeders":26,"leechers":2,"uploader":"Koedje","files":-1,"time":1319390327,"description":" &lt;a href=&quot;http://img689.imageshack.us/img689/2116/kungfuu.jpg&quot; rel=&quot;nofollow&quot; target=&quot;_NEW&quot;&gt;http://img689.imageshack.us/img689/2116/kungfuu.jpg&lt;/a&gt;\n\n\nVerenigde Staten\nAnimatie / Actie\n\ngeregisseerd door Jennifer Yuh\nmet de stemmen van Jack Black, Angelina Jolie en Jackie Chan\n\nPo's droom is uitgekomen nu hij De Drakenkrijger is en de Vredesvallei beschermt samen met zijn vrienden en andere Kung Fu meesters, De Vurige Vijf - Tijger, Kraan, Mantis, Viper en Aap. Zijn heerlijke leventje verandert volledig als er een nare tegenstander met een geheim wapen China probeert te veroveren en Kung Fu wilt uitroeien. Samen met De Vurige Vijf moet hij China doorkruisen om deze vijand te overmeesteren. Maar hoe kan Po een wapen ontmantelen dat Kung Fu vernietigt? Hij zal daarvoor eerst zijn mysterieuze verleden moeten ontrafelen om vervolgens de juiste krachten uit zichzelf te halen.\n\n\n\n\n\nScreenshots:\n &lt;a href=&quot;\nhttp://img804.imageshack.us/img804/3296/screenshot1xx.jpg&quot; rel=&quot;nofollow&quot; target=&quot;_NEW&quot;&gt;\nhttp://img804.imageshack.us/img804/3296/screenshot1xx.jpg&lt;/a&gt;\n &lt;a href=&quot;\nhttp://img856.imageshack.us/img856/4057/screenshot2zjw.jpg&quot; rel=&quot;nofollow&quot; target=&quot;_NEW&quot;&gt;\nhttp://img856.imageshack.us/img856/4057/screenshot2zjw.jpg&lt;/a&gt;\n &lt;a href=&quot;\nhttp://img804.imageshack.us/img804/6/screenshot3y.jpg&quot; rel=&quot;nofollow&quot; target=&quot;_NEW&quot;&gt;\nhttp://img804.imageshack.us/img804/6/screenshot3y.jpg&lt;/a&gt;\n &lt;a href=&quot;\nhttp://img268.imageshack.us/img268/4006/screenshot4gt.jpg&quot; rel=&quot;nofollow&quot; target=&quot;_NEW&quot;&gt;\nhttp://img268.imageshack.us/img268/4006/screenshot4gt.jpg&lt;/a&gt;\n\n\n\n\nINFO;\n\nVideo\nID                                       : 0\nFormat                                   : MPEG-4 Visual\nFormat profile                           : Advanced Simple@L5\nFormat settings, BVOP                    : 1\nFormat settings, QPel                    : No\nFormat settings, GMC                     : No warppoints\nFormat settings, Matrix                  : Custom\nCodec ID                                 : XVID\nCodec ID/Hint                            : XviD\nDuration                                 : 1h 30mn\nBit rate                                 : 954 Kbps\nWidth                                    : 672 pixels\nHeight                                   : 288 pixels\nDisplay aspect ratio                     : 2.35:1\nFrame rate                               : 23.976 fps\nColor space                              : YUV\nChroma subsampling                       : 4:2:0\nBit depth                                : 8 bits\nScan type                                : Progressive\nCompression mode                         : Lossy\nBits/(Pixel*Frame)                       : 0.205\nStream size                              : 617 MiB (88%)\nWriting library                          : XviD 64\n\nAudio\nID                                       : 1\nFormat                                   : MPEG Audio\nFormat version                           : Version 1\nFormat profile                           : Layer 3\nMode                                     : Joint stereo\nMode extension                           : MS Stereo\nCodec ID                                 : 55\nCodec ID/Hint                            : MP3\nDuration                                 : 1h 30mn\nBit rate mode                            : Variable\nBit rate                                 : 117 Kbps\nNominal bit rate                         : 128 Kbps\nChannel(s)                               : 2 channels\nSampling rate                            : 48.0 KHz\nCompression mode                         : Lossy\nStream size                              : 75.5 MiB (11%)\nAlignment                                : Aligned on interleaves\nInterleave, duration                     : 24 ms (0.58 video frame)\nInterleave, preload duration             : 157 ms\nWriting library                          : LAME3.98r\n\n\n &lt;a href=&quot;\nhttp://www.imdb.com/title/tt1302011/&quot; rel=&quot;nofollow&quot; target=&quot;_NEW&quot;&gt;\nhttp://www.imdb.com/title/tt1302011/&lt;/a&gt; &lt;a href=&quot;\nhttp://www.moviemeter.nl/film/71651&quot; rel=&quot;nofollow&quot; target=&quot;_NEW&quot;&gt;\nhttp://www.moviemeter.nl/film/71651&lt;/a&gt;\n\n\n\n\nDeze film wordt u aangeboden door het DutchReleaseTeam.\nVoor de reviews van de nieuwste films, muziek, series, games etc\nga dan eens naar http://www.hetmultimediacafe.be\n\nDutchReleaseteam = Hardcoded Dutch Subs","torrent":{"xt":"urn:btih:9cd713ac9caa4e083bf0158c43272e031d667422","amp;dn":"Kung+Fu+Panda+2+%282011%29+DVDRip+NL+gesproken+DutchReleaseTeam","amp;tr":["udp%3A%2F%2Ftracker.openbittorrent.com%3A80","udp%3A%2F%2Fopen.demonii.com%3A1337","udp%3A%2F%2Ftracker.coppersurfer.tk%3A6969","udp%3A%2F%2Fexodus.desync.com%3A6969"],"infoHash":"9cd713ac9caa4e083bf0158c43272e031d667422","infoHashBuffer":{"type":"Buffer","data":[156,215,19,172,156,170,78,8,59,240,21,140,67,39,46,3,29,102,116,34]},"announce":[],"urlList":[]}}